<mxfile host="65bd71144e">
    <diagram name="Page-1" id="c7558073-3199-34d8-9f00-42111426c3f3">
        <mxGraphModel dx="1373" dy="1696" grid="1" gridSize="10" guides="1" tooltips="1" connect="1" arrows="1" fold="1" page="1" pageScale="1" pageWidth="1169" pageHeight="827" background="none" math="0" shadow="0">
            <root>
                <mxCell id="0"/>
                <mxCell id="1" parent="0"/>
                <mxCell id="AH-zZbvjfdgHSXruQW5m-133" style="edgeStyle=orthogonalEdgeStyle;rounded=1;orthogonalLoop=1;jettySize=auto;html=1;exitX=1;exitY=0.75;exitDx=0;exitDy=0;entryX=0.25;entryY=0;entryDx=0;entryDy=0;fontSize=17;" parent="1" source="AH-zZbvjfdgHSXruQW5m-96" target="AH-zZbvjfdgHSXruQW5m-117" edge="1">
                    <mxGeometry relative="1" as="geometry">
                        <Array as="points">
                            <mxPoint x="315" y="446"/>
                        </Array>
                    </mxGeometry>
                </mxCell>
                <mxCell id="AH-zZbvjfdgHSXruQW5m-96" value="&lt;div style=&quot;font-size: 17px&quot;&gt;&lt;font style=&quot;font-size: 17px&quot;&gt;Raw &lt;br&gt;&lt;/font&gt;&lt;/div&gt;&lt;div style=&quot;font-size: 17px&quot;&gt;&lt;font style=&quot;font-size: 17px&quot;&gt;Fastq Reads&lt;/font&gt;&lt;/div&gt;" style="shape=document;whiteSpace=wrap;html=1;boundedLbl=1;fontColor=#FFFFFF;fillColor=#6639A6;" parent="1" vertex="1">
                    <mxGeometry x="185" y="386" width="120" height="80" as="geometry"/>
                </mxCell>
                <mxCell id="AH-zZbvjfdgHSXruQW5m-122" style="edgeStyle=orthogonalEdgeStyle;rounded=1;orthogonalLoop=1;jettySize=auto;html=1;exitX=0.75;exitY=0;exitDx=0;exitDy=0;entryX=0.25;entryY=1;entryDx=0;entryDy=0;fontSize=17;" parent="1" source="AH-zZbvjfdgHSXruQW5m-100" target="AH-zZbvjfdgHSXruQW5m-101" edge="1">
                    <mxGeometry relative="1" as="geometry"/>
                </mxCell>
                <mxCell id="AH-zZbvjfdgHSXruQW5m-126" style="edgeStyle=orthogonalEdgeStyle;rounded=1;orthogonalLoop=1;jettySize=auto;html=1;exitX=1;exitY=0.5;exitDx=0;exitDy=0;entryX=0;entryY=0.5;entryDx=0;entryDy=0;fontSize=17;" parent="1" source="AH-zZbvjfdgHSXruQW5m-100" target="AH-zZbvjfdgHSXruQW5m-102" edge="1">
                    <mxGeometry relative="1" as="geometry"/>
                </mxCell>
                <mxCell id="AH-zZbvjfdgHSXruQW5m-135" style="edgeStyle=orthogonalEdgeStyle;rounded=0;orthogonalLoop=1;jettySize=auto;html=1;exitX=0.25;exitY=1;exitDx=0;exitDy=0;entryX=0.75;entryY=0;entryDx=0;entryDy=0;fontSize=17;" parent="1" source="AH-zZbvjfdgHSXruQW5m-100" target="AH-zZbvjfdgHSXruQW5m-117" edge="1">
                    <mxGeometry relative="1" as="geometry"/>
                </mxCell>
                <mxCell id="AH-zZbvjfdgHSXruQW5m-146" style="edgeStyle=orthogonalEdgeStyle;rounded=1;orthogonalLoop=1;jettySize=auto;html=1;exitX=0.75;exitY=1;exitDx=0;exitDy=0;entryX=0.25;entryY=1;entryDx=0;entryDy=0;fontSize=17;" parent="1" source="AH-zZbvjfdgHSXruQW5m-100" target="AH-zZbvjfdgHSXruQW5m-119" edge="1">
                    <mxGeometry relative="1" as="geometry">
                        <Array as="points">
                            <mxPoint x="435" y="576"/>
                            <mxPoint x="875" y="576"/>
                        </Array>
                    </mxGeometry>
                </mxCell>
                <mxCell id="AH-zZbvjfdgHSXruQW5m-152" style="edgeStyle=orthogonalEdgeStyle;rounded=1;orthogonalLoop=1;jettySize=auto;html=1;exitX=1;exitY=0.25;exitDx=0;exitDy=0;entryX=0.25;entryY=0;entryDx=0;entryDy=0;fontSize=17;" parent="1" source="AH-zZbvjfdgHSXruQW5m-100" target="AH-zZbvjfdgHSXruQW5m-150" edge="1">
                    <mxGeometry relative="1" as="geometry">
                        <Array as="points">
                            <mxPoint x="485" y="404"/>
                            <mxPoint x="485" y="336"/>
                            <mxPoint x="875" y="336"/>
                        </Array>
                    </mxGeometry>
                </mxCell>
                <mxCell id="AH-zZbvjfdgHSXruQW5m-100" value="&lt;div style=&quot;font-size: 17px;&quot;&gt;BBDuk&lt;/div&gt;&lt;div style=&quot;font-size: 17px;&quot;&gt;QC Trim&lt;br style=&quot;font-size: 17px;&quot;&gt;&lt;/div&gt;&lt;div style=&quot;font-size: 17px;&quot;&gt;PhiX / Adapter&lt;/div&gt;&lt;div style=&quot;font-size: 17px;&quot;&gt;Removal&lt;br style=&quot;font-size: 17px;&quot;&gt;&lt;/div&gt;" style="rounded=1;whiteSpace=wrap;html=1;fontSize=17;glass=0;sketch=0;shadow=0;fontColor=#FFFFFF;fillColor=#3490DE;" parent="1" vertex="1">
                    <mxGeometry x="345" y="381" width="120" height="90" as="geometry"/>
                </mxCell>
                <mxCell id="AH-zZbvjfdgHSXruQW5m-137" style="edgeStyle=orthogonalEdgeStyle;rounded=0;orthogonalLoop=1;jettySize=auto;html=1;exitX=1;exitY=0.75;exitDx=0;exitDy=0;entryX=0;entryY=0.75;entryDx=0;entryDy=0;fontSize=17;" parent="1" source="AH-zZbvjfdgHSXruQW5m-101" target="AH-zZbvjfdgHSXruQW5m-104" edge="1">
                    <mxGeometry relative="1" as="geometry"/>
                </mxCell>
                <mxCell id="AH-zZbvjfdgHSXruQW5m-156" style="edgeStyle=orthogonalEdgeStyle;rounded=1;orthogonalLoop=1;jettySize=auto;html=1;exitX=0.5;exitY=0;exitDx=0;exitDy=0;entryX=1;entryY=0.25;entryDx=0;entryDy=0;fontSize=17;" parent="1" source="AH-zZbvjfdgHSXruQW5m-101" target="AH-zZbvjfdgHSXruQW5m-119" edge="1">
                    <mxGeometry relative="1" as="geometry">
                        <Array as="points">
                            <mxPoint x="465" y="196"/>
                            <mxPoint x="985" y="196"/>
                            <mxPoint x="985" y="501"/>
                        </Array>
                    </mxGeometry>
                </mxCell>
                <mxCell id="AH-zZbvjfdgHSXruQW5m-157" style="edgeStyle=orthogonalEdgeStyle;rounded=1;orthogonalLoop=1;jettySize=auto;html=1;exitX=0.75;exitY=0;exitDx=0;exitDy=0;entryX=0.75;entryY=0;entryDx=0;entryDy=0;fontSize=17;" parent="1" source="AH-zZbvjfdgHSXruQW5m-101" target="AH-zZbvjfdgHSXruQW5m-150" edge="1">
                    <mxGeometry relative="1" as="geometry"/>
                </mxCell>
                <mxCell id="AH-zZbvjfdgHSXruQW5m-101" value="&lt;div style=&quot;font-size: 17px;&quot;&gt;Kraken2&lt;/div&gt;" style="rounded=1;whiteSpace=wrap;html=1;fontSize=17;glass=0;sketch=0;shadow=0;gradientDirection=east;fontColor=#FFFFFF;fillColor=#3490DE;" parent="1" vertex="1">
                    <mxGeometry x="405" y="246" width="120" height="60" as="geometry"/>
                </mxCell>
                <mxCell id="AH-zZbvjfdgHSXruQW5m-138" style="edgeStyle=orthogonalEdgeStyle;rounded=0;orthogonalLoop=1;jettySize=auto;html=1;exitX=0.75;exitY=0;exitDx=0;exitDy=0;entryX=0.25;entryY=1;entryDx=0;entryDy=0;fontSize=17;" parent="1" source="AH-zZbvjfdgHSXruQW5m-102" target="AH-zZbvjfdgHSXruQW5m-104" edge="1">
                    <mxGeometry relative="1" as="geometry"/>
                </mxCell>
                <mxCell id="AH-zZbvjfdgHSXruQW5m-139" style="edgeStyle=orthogonalEdgeStyle;rounded=1;orthogonalLoop=1;jettySize=auto;html=1;exitX=1;exitY=0.25;exitDx=0;exitDy=0;entryX=0;entryY=0.75;entryDx=0;entryDy=0;fontSize=17;" parent="1" source="AH-zZbvjfdgHSXruQW5m-102" target="AH-zZbvjfdgHSXruQW5m-103" edge="1">
                    <mxGeometry relative="1" as="geometry"/>
                </mxCell>
                <mxCell id="AH-zZbvjfdgHSXruQW5m-140" style="edgeStyle=orthogonalEdgeStyle;rounded=1;orthogonalLoop=1;jettySize=auto;html=1;exitX=1;exitY=0.75;exitDx=0;exitDy=0;entryX=0;entryY=0.25;entryDx=0;entryDy=0;fontSize=17;" parent="1" source="AH-zZbvjfdgHSXruQW5m-102" target="AH-zZbvjfdgHSXruQW5m-130" edge="1">
                    <mxGeometry relative="1" as="geometry"/>
                </mxCell>
                <mxCell id="AH-zZbvjfdgHSXruQW5m-144" style="edgeStyle=orthogonalEdgeStyle;rounded=1;orthogonalLoop=1;jettySize=auto;html=1;exitX=0.25;exitY=1;exitDx=0;exitDy=0;entryX=0.25;entryY=0;entryDx=0;entryDy=0;fontSize=17;" parent="1" source="AH-zZbvjfdgHSXruQW5m-102" target="AH-zZbvjfdgHSXruQW5m-143" edge="1">
                    <mxGeometry relative="1" as="geometry"/>
                </mxCell>
                <mxCell id="AH-zZbvjfdgHSXruQW5m-102" value="&lt;div style=&quot;font-size: 17px;&quot;&gt;Shovill&lt;/div&gt;" style="rounded=1;whiteSpace=wrap;html=1;fontSize=17;glass=0;sketch=0;shadow=0;fontColor=#FFFFFF;fillColor=#3490DE;" parent="1" vertex="1">
                    <mxGeometry x="505" y="396" width="120" height="60" as="geometry"/>
                </mxCell>
                <mxCell id="AH-zZbvjfdgHSXruQW5m-154" style="edgeStyle=orthogonalEdgeStyle;rounded=1;orthogonalLoop=1;jettySize=auto;html=1;exitX=1;exitY=0.75;exitDx=0;exitDy=0;entryX=0;entryY=0.25;entryDx=0;entryDy=0;fontSize=17;" parent="1" source="AH-zZbvjfdgHSXruQW5m-103" target="AH-zZbvjfdgHSXruQW5m-150" edge="1">
                    <mxGeometry relative="1" as="geometry"/>
                </mxCell>
                <mxCell id="AH-zZbvjfdgHSXruQW5m-103" value="MLST" style="rounded=1;whiteSpace=wrap;html=1;fontSize=17;glass=0;sketch=0;shadow=0;fontColor=#FFFFFF;fillColor=#3490DE;" parent="1" vertex="1">
                    <mxGeometry x="675" y="356" width="120" height="60" as="geometry"/>
                </mxCell>
                <mxCell id="AH-zZbvjfdgHSXruQW5m-155" style="edgeStyle=orthogonalEdgeStyle;rounded=1;orthogonalLoop=1;jettySize=auto;html=1;exitX=1;exitY=0.75;exitDx=0;exitDy=0;fontSize=17;" parent="1" source="AH-zZbvjfdgHSXruQW5m-104" target="AH-zZbvjfdgHSXruQW5m-150" edge="1">
                    <mxGeometry relative="1" as="geometry"/>
                </mxCell>
                <mxCell id="AH-zZbvjfdgHSXruQW5m-104" value="&lt;div style=&quot;font-size: 17px;&quot;&gt;NCBI&lt;/div&gt;&lt;div style=&quot;font-size: 17px;&quot;&gt;AMR Finder&lt;br style=&quot;font-size: 17px;&quot;&gt;Plus&lt;br style=&quot;font-size: 17px;&quot;&gt;&lt;/div&gt;" style="rounded=1;whiteSpace=wrap;html=1;fontSize=17;glass=0;sketch=0;shadow=0;fontColor=#FFFFFF;fillColor=#3490DE;" parent="1" vertex="1">
                    <mxGeometry x="565" y="246" width="120" height="60" as="geometry"/>
                </mxCell>
                <mxCell id="AH-zZbvjfdgHSXruQW5m-145" style="edgeStyle=orthogonalEdgeStyle;rounded=1;orthogonalLoop=1;jettySize=auto;html=1;exitX=1;exitY=0.5;exitDx=0;exitDy=0;entryX=0.75;entryY=1;entryDx=0;entryDy=0;fontSize=17;" parent="1" source="AH-zZbvjfdgHSXruQW5m-117" target="AH-zZbvjfdgHSXruQW5m-119" edge="1">
                    <mxGeometry relative="1" as="geometry"/>
                </mxCell>
                <mxCell id="AH-zZbvjfdgHSXruQW5m-117" value="FastQC" style="shape=process;whiteSpace=wrap;html=1;backgroundOutline=1;rounded=1;shadow=0;glass=0;sketch=0;fontSize=17;gradientColor=none;fontColor=#FFFFFF;fillColor=#3490DE;" parent="1" vertex="1">
                    <mxGeometry x="285" y="571" width="120" height="60" as="geometry"/>
                </mxCell>
                <mxCell id="AH-zZbvjfdgHSXruQW5m-119" value="MultiQC" style="shape=process;whiteSpace=wrap;html=1;backgroundOutline=1;rounded=1;shadow=0;glass=0;sketch=0;fontSize=17;gradientColor=none;fontColor=#FFFFFF;fillColor=#3490DE;" parent="1" vertex="1">
                    <mxGeometry x="845" y="486" width="120" height="60" as="geometry"/>
                </mxCell>
                <mxCell id="AH-zZbvjfdgHSXruQW5m-120" value="" style="endArrow=classic;html=1;fontSize=17;entryX=0;entryY=0.5;entryDx=0;entryDy=0;exitX=1;exitY=0.5;exitDx=0;exitDy=0;rounded=1;" parent="1" source="AH-zZbvjfdgHSXruQW5m-96" target="AH-zZbvjfdgHSXruQW5m-100" edge="1">
                    <mxGeometry width="50" height="50" relative="1" as="geometry">
                        <mxPoint x="335" y="336" as="sourcePoint"/>
                        <mxPoint x="615" y="416" as="targetPoint"/>
                    </mxGeometry>
                </mxCell>
                <mxCell id="AH-zZbvjfdgHSXruQW5m-147" style="edgeStyle=orthogonalEdgeStyle;rounded=0;orthogonalLoop=1;jettySize=auto;html=1;exitX=0.75;exitY=1;exitDx=0;exitDy=0;entryX=0;entryY=0.5;entryDx=0;entryDy=0;fontSize=17;" parent="1" source="AH-zZbvjfdgHSXruQW5m-130" target="AH-zZbvjfdgHSXruQW5m-119" edge="1">
                    <mxGeometry relative="1" as="geometry"/>
                </mxCell>
                <mxCell id="AH-zZbvjfdgHSXruQW5m-158" style="edgeStyle=orthogonalEdgeStyle;rounded=1;orthogonalLoop=1;jettySize=auto;html=1;exitX=1;exitY=0.5;exitDx=0;exitDy=0;entryX=0.5;entryY=1;entryDx=0;entryDy=0;fontSize=17;" parent="1" source="AH-zZbvjfdgHSXruQW5m-130" target="AH-zZbvjfdgHSXruQW5m-150" edge="1">
                    <mxGeometry relative="1" as="geometry">
                        <Array as="points">
                            <mxPoint x="905" y="466"/>
                        </Array>
                    </mxGeometry>
                </mxCell>
                <mxCell id="AH-zZbvjfdgHSXruQW5m-130" value="&lt;div&gt;Samtools&lt;/div&gt;" style="rounded=1;whiteSpace=wrap;html=1;shadow=0;glass=0;sketch=0;fontSize=17;gradientColor=none;fontColor=#FFFFFF;fillColor=#3490DE;" parent="1" vertex="1">
                    <mxGeometry x="675" y="436" width="120" height="60" as="geometry"/>
                </mxCell>
                <mxCell id="AH-zZbvjfdgHSXruQW5m-148" style="edgeStyle=orthogonalEdgeStyle;rounded=1;orthogonalLoop=1;jettySize=auto;html=1;exitX=1;exitY=0.5;exitDx=0;exitDy=0;entryX=0;entryY=0.75;entryDx=0;entryDy=0;fontSize=17;" parent="1" source="AH-zZbvjfdgHSXruQW5m-143" target="AH-zZbvjfdgHSXruQW5m-119" edge="1">
                    <mxGeometry relative="1" as="geometry"/>
                </mxCell>
                <mxCell id="AH-zZbvjfdgHSXruQW5m-153" style="edgeStyle=orthogonalEdgeStyle;rounded=1;orthogonalLoop=1;jettySize=auto;html=1;exitX=1;exitY=0.25;exitDx=0;exitDy=0;entryX=0;entryY=0.75;entryDx=0;entryDy=0;fontSize=17;" parent="1" source="AH-zZbvjfdgHSXruQW5m-143" target="AH-zZbvjfdgHSXruQW5m-150" edge="1">
                    <mxGeometry relative="1" as="geometry">
                        <Array as="points">
                            <mxPoint x="625" y="506"/>
                            <mxPoint x="815" y="506"/>
                            <mxPoint x="815" y="441"/>
                        </Array>
                    </mxGeometry>
                </mxCell>
                <mxCell id="AH-zZbvjfdgHSXruQW5m-143" value="QUAST" style="rounded=1;whiteSpace=wrap;html=1;shadow=0;glass=0;sketch=0;fontSize=17;fontColor=#FFFFFF;fillColor=#3490DE;" parent="1" vertex="1">
                    <mxGeometry x="505" y="501" width="120" height="60" as="geometry"/>
                </mxCell>
                <mxCell id="AH-zZbvjfdgHSXruQW5m-150" value="Result Summary" style="shape=process;whiteSpace=wrap;html=1;backgroundOutline=1;rounded=1;shadow=0;glass=0;sketch=0;fontSize=17;gradientColor=none;fontColor=#FFFFFF;fillColor=#3490DE;" parent="1" vertex="1">
                    <mxGeometry x="845" y="396" width="120" height="60" as="geometry"/>
                </mxCell>
            </root>
        </mxGraphModel>
    </diagram>
</mxfile>